<mxfile host="app.diagrams.net" modified="2024-06-19T20:11:05.529Z" agent="Mozilla/5.0 (Windows NT 10.0; Win64; x64) AppleWebKit/537.36 (KHTML, like Gecko) Chrome/125.0.0.0 Safari/537.36" etag="kgPAvTq3RfWWNyfSTg1c" version="24.5.5" type="device">
  <diagram name="Page-1" id="bLqNmkRba2NGORORPSZ6">
    <mxGraphModel dx="840" dy="3536" grid="1" gridSize="10" guides="1" tooltips="1" connect="1" arrows="1" fold="1" page="1" pageScale="1" pageWidth="2000" pageHeight="1000" math="0" shadow="0">
      <root>
        <mxCell id="0" />
        <mxCell id="1" parent="0" />
        <mxCell id="kpbunleFt5hodRkQ_GG0-1" value="" style="rounded=0;whiteSpace=wrap;html=1;fillColor=default;fillStyle=auto;" parent="1" vertex="1">
          <mxGeometry x="2030" y="-970" width="1580" height="940" as="geometry" />
        </mxCell>
        <mxCell id="kpbunleFt5hodRkQ_GG0-2" value="" style="group" parent="1" vertex="1" connectable="0">
          <mxGeometry x="2050" y="-952.5" width="210" height="900" as="geometry" />
        </mxCell>
        <mxCell id="kpbunleFt5hodRkQ_GG0-3" value="" style="rounded=1;whiteSpace=wrap;html=1;fillColor=#BFBFBF;fontColor=#333333;strokeColor=#666666;movable=1;resizable=1;rotatable=1;deletable=1;editable=1;locked=0;connectable=1;" parent="kpbunleFt5hodRkQ_GG0-2" vertex="1">
          <mxGeometry width="210" height="900" as="geometry" />
        </mxCell>
        <mxCell id="kpbunleFt5hodRkQ_GG0-4" value="&lt;font style=&quot;font-size: 32px;&quot;&gt;Learny&lt;/font&gt;" style="rounded=1;whiteSpace=wrap;html=1;fillColor=#0A0A0A;fontColor=#FCFCFC;fontSize=16;movable=1;resizable=1;rotatable=1;deletable=1;editable=1;locked=0;connectable=1;" parent="kpbunleFt5hodRkQ_GG0-2" vertex="1">
          <mxGeometry x="10" y="50" width="190" height="60" as="geometry" />
        </mxCell>
        <mxCell id="kpbunleFt5hodRkQ_GG0-5" value="Main Page" style="rounded=1;whiteSpace=wrap;html=1;fontSize=16;" parent="kpbunleFt5hodRkQ_GG0-2" vertex="1">
          <mxGeometry x="10" y="200" width="190" height="40" as="geometry" />
        </mxCell>
        <mxCell id="kpbunleFt5hodRkQ_GG0-6" value="Schedule" style="rounded=1;whiteSpace=wrap;html=1;fontSize=16;" parent="kpbunleFt5hodRkQ_GG0-2" vertex="1">
          <mxGeometry x="10" y="260" width="190" height="40" as="geometry" />
        </mxCell>
        <mxCell id="kpbunleFt5hodRkQ_GG0-7" value="Courses" style="rounded=1;whiteSpace=wrap;html=1;fontSize=16;fillColor=#d5e8d4;strokeColor=#82b366;" parent="kpbunleFt5hodRkQ_GG0-2" vertex="1">
          <mxGeometry x="10" y="320" width="190" height="40" as="geometry" />
        </mxCell>
        <mxCell id="kpbunleFt5hodRkQ_GG0-8" value="Sprawdziany" style="rounded=1;whiteSpace=wrap;html=1;fontSize=16;" parent="kpbunleFt5hodRkQ_GG0-2" vertex="1">
          <mxGeometry x="10" y="380" width="190" height="40" as="geometry" />
        </mxCell>
        <mxCell id="kpbunleFt5hodRkQ_GG0-9" value="Oceny końcowe" style="rounded=1;whiteSpace=wrap;html=1;fontSize=16;" parent="kpbunleFt5hodRkQ_GG0-2" vertex="1">
          <mxGeometry x="10" y="440" width="190" height="40" as="geometry" />
        </mxCell>
        <mxCell id="kpbunleFt5hodRkQ_GG0-11" value="Decyzje" style="rounded=1;whiteSpace=wrap;html=1;fontSize=16;" parent="kpbunleFt5hodRkQ_GG0-2" vertex="1">
          <mxGeometry x="10" y="560" width="190" height="40" as="geometry" />
        </mxCell>
        <mxCell id="kpbunleFt5hodRkQ_GG0-12" value="Profil" style="rounded=1;whiteSpace=wrap;html=1;fontSize=16;" parent="kpbunleFt5hodRkQ_GG0-2" vertex="1">
          <mxGeometry x="10" y="130" width="190" height="40" as="geometry" />
        </mxCell>
        <mxCell id="kpbunleFt5hodRkQ_GG0-13" value="" style="line;strokeWidth=2;html=1;" parent="kpbunleFt5hodRkQ_GG0-2" vertex="1">
          <mxGeometry x="10" y="180" width="190" height="10" as="geometry" />
        </mxCell>
        <mxCell id="kpbunleFt5hodRkQ_GG0-14" value="" style="line;strokeWidth=2;html=1;" parent="kpbunleFt5hodRkQ_GG0-2" vertex="1">
          <mxGeometry x="10" y="610" width="190" height="10" as="geometry" />
        </mxCell>
        <mxCell id="kpbunleFt5hodRkQ_GG0-15" value="Aplikacja mobilna" style="rounded=1;whiteSpace=wrap;html=1;fontSize=16;" parent="kpbunleFt5hodRkQ_GG0-2" vertex="1">
          <mxGeometry x="10" y="630" width="190" height="40" as="geometry" />
        </mxCell>
        <mxCell id="kpbunleFt5hodRkQ_GG0-16" value="Preferencje" style="rounded=1;whiteSpace=wrap;html=1;fontSize=16;" parent="kpbunleFt5hodRkQ_GG0-2" vertex="1">
          <mxGeometry x="10" y="812.5" width="190" height="40" as="geometry" />
        </mxCell>
        <mxCell id="kpbunleFt5hodRkQ_GG0-17" value="Język" style="rounded=1;whiteSpace=wrap;html=1;fontSize=16;" parent="kpbunleFt5hodRkQ_GG0-2" vertex="1">
          <mxGeometry x="10" y="690" width="190" height="40" as="geometry" />
        </mxCell>
        <mxCell id="kpbunleFt5hodRkQ_GG0-18" value="Platności" style="rounded=1;whiteSpace=wrap;html=1;fontSize=16;" parent="kpbunleFt5hodRkQ_GG0-2" vertex="1">
          <mxGeometry x="10" y="752.5" width="190" height="40" as="geometry" />
        </mxCell>
        <mxCell id="kpbunleFt5hodRkQ_GG0-19" value="&lt;h1 style=&quot;margin-top: 0px;&quot;&gt;Courses&lt;/h1&gt;&lt;div&gt;&lt;br&gt;&lt;/div&gt;&lt;div&gt;На это странице будут показываться курсы в которые добавлен пользователь который зарегестрировался&lt;/div&gt;&lt;div&gt;&lt;br&gt;&lt;/div&gt;&lt;div&gt;&lt;br&gt;&lt;/div&gt;&lt;div&gt;все иконки будут иметь один стиль, но разные картинки&amp;nbsp;&lt;/div&gt;&lt;div&gt;&lt;br&gt;&lt;/div&gt;" style="text;html=1;whiteSpace=wrap;overflow=hidden;rounded=0;" parent="1" vertex="1">
          <mxGeometry x="2060" y="-1250" width="510" height="230" as="geometry" />
        </mxCell>
        <mxCell id="kpbunleFt5hodRkQ_GG0-20" value="" style="rounded=1;whiteSpace=wrap;html=1;fillColor=#d5e8d4;strokeColor=#82b366;" parent="1" vertex="1">
          <mxGeometry x="2615" y="-1165" width="120" height="60" as="geometry" />
        </mxCell>
        <mxCell id="kpbunleFt5hodRkQ_GG0-21" style="edgeStyle=orthogonalEdgeStyle;rounded=0;orthogonalLoop=1;jettySize=auto;html=1;exitX=0;exitY=0.5;exitDx=0;exitDy=0;entryX=1;entryY=0.5;entryDx=0;entryDy=0;" parent="1" source="kpbunleFt5hodRkQ_GG0-22" target="kpbunleFt5hodRkQ_GG0-20" edge="1">
          <mxGeometry relative="1" as="geometry" />
        </mxCell>
        <mxCell id="kpbunleFt5hodRkQ_GG0-22" value="&amp;nbsp;какая сейчас часть страницы дизайнится" style="text;html=1;align=center;verticalAlign=middle;whiteSpace=wrap;rounded=0;fontSize=17;" parent="1" vertex="1">
          <mxGeometry x="2785" y="-1152.5" width="240" height="35" as="geometry" />
        </mxCell>
        <mxCell id="kpbunleFt5hodRkQ_GG0-25" value="" style="rounded=0;whiteSpace=wrap;html=1;" parent="1" vertex="1">
          <mxGeometry x="2295" y="-950" width="1280" height="900" as="geometry" />
        </mxCell>
        <mxCell id="kpbunleFt5hodRkQ_GG0-33" value="" style="rounded=1;whiteSpace=wrap;html=1;fontSize=18;" parent="1" vertex="1">
          <mxGeometry x="2795" y="-950" width="280" height="60" as="geometry" />
        </mxCell>
        <mxCell id="kpbunleFt5hodRkQ_GG0-34" value="Semester" style="text;html=1;align=center;verticalAlign=middle;whiteSpace=wrap;rounded=0;fontSize=18;" parent="1" vertex="1">
          <mxGeometry x="2935" y="-935" width="80" height="30" as="geometry" />
        </mxCell>
        <mxCell id="kpbunleFt5hodRkQ_GG0-39" value="" style="group" parent="1" vertex="1" connectable="0">
          <mxGeometry x="3025" y="-932.5" width="37.5" height="25" as="geometry" />
        </mxCell>
        <mxCell id="kpbunleFt5hodRkQ_GG0-37" value="" style="rounded=1;whiteSpace=wrap;html=1;" parent="kpbunleFt5hodRkQ_GG0-39" vertex="1">
          <mxGeometry width="37.5" height="25" as="geometry" />
        </mxCell>
        <mxCell id="kpbunleFt5hodRkQ_GG0-35" value="" style="triangle;whiteSpace=wrap;html=1;rotation=90;fillColor=#000000;" parent="kpbunleFt5hodRkQ_GG0-39" vertex="1">
          <mxGeometry x="20" y="5" width="10" height="15" as="geometry" />
        </mxCell>
        <mxCell id="ylA8hBtClCuaS4dvFyWP-1" value="1" style="text;html=1;align=center;verticalAlign=middle;whiteSpace=wrap;rounded=0;fontSize=19;" parent="kpbunleFt5hodRkQ_GG0-39" vertex="1">
          <mxGeometry x="3" width="12" height="25" as="geometry" />
        </mxCell>
        <mxCell id="kpbunleFt5hodRkQ_GG0-45" value="Rok" style="text;html=1;align=center;verticalAlign=middle;whiteSpace=wrap;rounded=0;fontSize=18;" parent="1" vertex="1">
          <mxGeometry x="2795" y="-935" width="50" height="30" as="geometry" />
        </mxCell>
        <mxCell id="kpbunleFt5hodRkQ_GG0-46" value="" style="group" parent="1" vertex="1" connectable="0">
          <mxGeometry x="2845" y="-932" width="37.5" height="25" as="geometry" />
        </mxCell>
        <mxCell id="kpbunleFt5hodRkQ_GG0-47" value="" style="rounded=1;whiteSpace=wrap;html=1;" parent="kpbunleFt5hodRkQ_GG0-46" vertex="1">
          <mxGeometry width="37.5" height="25" as="geometry" />
        </mxCell>
        <mxCell id="kpbunleFt5hodRkQ_GG0-48" value="" style="triangle;whiteSpace=wrap;html=1;rotation=90;fillColor=#000000;" parent="kpbunleFt5hodRkQ_GG0-46" vertex="1">
          <mxGeometry x="20" y="5" width="10" height="15" as="geometry" />
        </mxCell>
        <mxCell id="kpbunleFt5hodRkQ_GG0-49" value="1" style="text;html=1;align=center;verticalAlign=middle;whiteSpace=wrap;rounded=0;fontSize=19;" parent="kpbunleFt5hodRkQ_GG0-46" vertex="1">
          <mxGeometry x="3" y="-1" width="12" height="25" as="geometry" />
        </mxCell>
        <mxCell id="ylA8hBtClCuaS4dvFyWP-4" value="" style="rounded=1;whiteSpace=wrap;html=1;" parent="1" vertex="1">
          <mxGeometry x="2745" y="-860" width="380" height="210" as="geometry" />
        </mxCell>
        <mxCell id="ylA8hBtClCuaS4dvFyWP-5" value="" style="rounded=1;whiteSpace=wrap;html=1;" parent="1" vertex="1">
          <mxGeometry x="3160" y="-860" width="380" height="210" as="geometry" />
        </mxCell>
        <mxCell id="ylA8hBtClCuaS4dvFyWP-6" value="" style="rounded=1;whiteSpace=wrap;html=1;" parent="1" vertex="1">
          <mxGeometry x="2330" y="-620" width="380" height="210" as="geometry" />
        </mxCell>
        <mxCell id="ylA8hBtClCuaS4dvFyWP-7" value="" style="rounded=1;whiteSpace=wrap;html=1;" parent="1" vertex="1">
          <mxGeometry x="2745" y="-620" width="380" height="210" as="geometry" />
        </mxCell>
        <mxCell id="ylA8hBtClCuaS4dvFyWP-8" value="" style="rounded=1;whiteSpace=wrap;html=1;" parent="1" vertex="1">
          <mxGeometry x="3160" y="-620" width="380" height="210" as="geometry" />
        </mxCell>
        <mxCell id="ylA8hBtClCuaS4dvFyWP-9" value="" style="rounded=1;whiteSpace=wrap;html=1;" parent="1" vertex="1">
          <mxGeometry x="2330" y="-380" width="380" height="210" as="geometry" />
        </mxCell>
        <mxCell id="ylA8hBtClCuaS4dvFyWP-10" value="" style="rounded=1;whiteSpace=wrap;html=1;" parent="1" vertex="1">
          <mxGeometry x="2745" y="-380" width="380" height="210" as="geometry" />
        </mxCell>
        <mxCell id="ylA8hBtClCuaS4dvFyWP-11" value="" style="rounded=1;whiteSpace=wrap;html=1;" parent="1" vertex="1">
          <mxGeometry x="3160" y="-380" width="380" height="210" as="geometry" />
        </mxCell>
        <mxCell id="NqlOlbyzlIxUdFmk_5lp-2" value="" style="group" parent="1" vertex="1" connectable="0">
          <mxGeometry x="2330" y="-860" width="380" height="210" as="geometry" />
        </mxCell>
        <mxCell id="ylA8hBtClCuaS4dvFyWP-3" value="" style="rounded=1;whiteSpace=wrap;html=1;" parent="NqlOlbyzlIxUdFmk_5lp-2" vertex="1">
          <mxGeometry width="380" height="210" as="geometry" />
        </mxCell>
        <mxCell id="ylA8hBtClCuaS4dvFyWP-12" value="&lt;font style=&quot;font-size: 14px;&quot;&gt;Nazwa przedmiotu&lt;/font&gt;" style="text;html=1;align=center;verticalAlign=middle;whiteSpace=wrap;rounded=1;strokeColor=default;" parent="NqlOlbyzlIxUdFmk_5lp-2" vertex="1">
          <mxGeometry x="110" width="160" height="40" as="geometry" />
        </mxCell>
        <mxCell id="ylA8hBtClCuaS4dvFyWP-16" value="ending:" style="text;html=1;align=center;verticalAlign=middle;whiteSpace=wrap;rounded=0;" parent="NqlOlbyzlIxUdFmk_5lp-2" vertex="1">
          <mxGeometry x="9" y="176.5" width="51" height="17" as="geometry" />
        </mxCell>
        <mxCell id="ylA8hBtClCuaS4dvFyWP-17" value="15%" style="text;html=1;align=center;verticalAlign=middle;whiteSpace=wrap;rounded=0;" parent="NqlOlbyzlIxUdFmk_5lp-2" vertex="1">
          <mxGeometry x="60" y="176.5" width="40" height="17" as="geometry" />
        </mxCell>
        <mxCell id="ylA8hBtClCuaS4dvFyWP-20" value="" style="verticalLabelPosition=bottom;verticalAlign=top;html=1;shape=mxgraph.basic.star;fillColor=#0F0F0F;" parent="NqlOlbyzlIxUdFmk_5lp-2" vertex="1">
          <mxGeometry x="30" y="6" width="30" height="28" as="geometry" />
        </mxCell>
        <mxCell id="ylA8hBtClCuaS4dvFyWP-24" value="" style="group" parent="NqlOlbyzlIxUdFmk_5lp-2" vertex="1" connectable="0">
          <mxGeometry x="360" y="168" width="2" height="15" as="geometry" />
        </mxCell>
        <mxCell id="ylA8hBtClCuaS4dvFyWP-21" value="" style="whiteSpace=wrap;html=1;aspect=fixed;" parent="ylA8hBtClCuaS4dvFyWP-24" vertex="1">
          <mxGeometry width="2" height="2" as="geometry" />
        </mxCell>
        <mxCell id="ylA8hBtClCuaS4dvFyWP-22" value="" style="whiteSpace=wrap;html=1;aspect=fixed;" parent="ylA8hBtClCuaS4dvFyWP-24" vertex="1">
          <mxGeometry y="6.5" width="2" height="2" as="geometry" />
        </mxCell>
        <mxCell id="ylA8hBtClCuaS4dvFyWP-23" value="" style="whiteSpace=wrap;html=1;aspect=fixed;" parent="ylA8hBtClCuaS4dvFyWP-24" vertex="1">
          <mxGeometry y="13" width="2" height="2" as="geometry" />
        </mxCell>
        <mxCell id="ylA8hBtClCuaS4dvFyWP-25" value="В центре картинка предмета" style="text;html=1;align=center;verticalAlign=middle;whiteSpace=wrap;rounded=0;" parent="NqlOlbyzlIxUdFmk_5lp-2" vertex="1">
          <mxGeometry x="125" y="90" width="130" height="30" as="geometry" />
        </mxCell>
        <mxCell id="NqlOlbyzlIxUdFmk_5lp-3" value="" style="group;strokeColor=none;" parent="1" vertex="1" connectable="0">
          <mxGeometry x="3150" y="-1230" width="380" height="210" as="geometry" />
        </mxCell>
        <mxCell id="NqlOlbyzlIxUdFmk_5lp-4" value="" style="rounded=1;whiteSpace=wrap;html=1;strokeColor=#11FF00;strokeWidth=4;gradientColor=none;" parent="NqlOlbyzlIxUdFmk_5lp-3" vertex="1">
          <mxGeometry width="380" height="210" as="geometry" />
        </mxCell>
        <mxCell id="NqlOlbyzlIxUdFmk_5lp-5" value="&lt;font style=&quot;font-size: 14px;&quot;&gt;Nazwa przedmiotu&lt;/font&gt;" style="text;html=1;align=center;verticalAlign=middle;whiteSpace=wrap;rounded=1;strokeColor=#11FF00;strokeWidth=4;" parent="NqlOlbyzlIxUdFmk_5lp-3" vertex="1">
          <mxGeometry x="110" width="160" height="40" as="geometry" />
        </mxCell>
        <mxCell id="NqlOlbyzlIxUdFmk_5lp-6" value="ending:" style="text;html=1;align=center;verticalAlign=middle;whiteSpace=wrap;rounded=0;" parent="NqlOlbyzlIxUdFmk_5lp-3" vertex="1">
          <mxGeometry x="9" y="176.5" width="51" height="17" as="geometry" />
        </mxCell>
        <mxCell id="NqlOlbyzlIxUdFmk_5lp-7" value="15%" style="text;html=1;align=center;verticalAlign=middle;whiteSpace=wrap;rounded=0;" parent="NqlOlbyzlIxUdFmk_5lp-3" vertex="1">
          <mxGeometry x="60" y="176.5" width="40" height="17" as="geometry" />
        </mxCell>
        <mxCell id="NqlOlbyzlIxUdFmk_5lp-8" value="" style="verticalLabelPosition=bottom;verticalAlign=top;html=1;shape=mxgraph.basic.star;fillColor=#0F0F0F;" parent="NqlOlbyzlIxUdFmk_5lp-3" vertex="1">
          <mxGeometry x="30" y="6" width="30" height="28" as="geometry" />
        </mxCell>
        <mxCell id="NqlOlbyzlIxUdFmk_5lp-9" value="" style="group" parent="NqlOlbyzlIxUdFmk_5lp-3" vertex="1" connectable="0">
          <mxGeometry x="360" y="168" width="2" height="15" as="geometry" />
        </mxCell>
        <mxCell id="NqlOlbyzlIxUdFmk_5lp-10" value="" style="whiteSpace=wrap;html=1;aspect=fixed;" parent="NqlOlbyzlIxUdFmk_5lp-9" vertex="1">
          <mxGeometry width="2" height="2" as="geometry" />
        </mxCell>
        <mxCell id="NqlOlbyzlIxUdFmk_5lp-11" value="" style="whiteSpace=wrap;html=1;aspect=fixed;" parent="NqlOlbyzlIxUdFmk_5lp-9" vertex="1">
          <mxGeometry y="6.5" width="2" height="2" as="geometry" />
        </mxCell>
        <mxCell id="NqlOlbyzlIxUdFmk_5lp-12" value="" style="whiteSpace=wrap;html=1;aspect=fixed;" parent="NqlOlbyzlIxUdFmk_5lp-9" vertex="1">
          <mxGeometry y="13" width="2" height="2" as="geometry" />
        </mxCell>
        <mxCell id="NqlOlbyzlIxUdFmk_5lp-13" value="В центре картинка предмета" style="text;html=1;align=center;verticalAlign=middle;whiteSpace=wrap;rounded=0;" parent="NqlOlbyzlIxUdFmk_5lp-3" vertex="1">
          <mxGeometry x="125" y="90" width="130" height="30" as="geometry" />
        </mxCell>
        <mxCell id="NqlOlbyzlIxUdFmk_5lp-15" value="" style="edgeStyle=orthogonalEdgeStyle;rounded=0;orthogonalLoop=1;jettySize=auto;html=1;" parent="1" source="NqlOlbyzlIxUdFmk_5lp-14" target="NqlOlbyzlIxUdFmk_5lp-4" edge="1">
          <mxGeometry relative="1" as="geometry" />
        </mxCell>
        <mxCell id="NqlOlbyzlIxUdFmk_5lp-14" value="&amp;nbsp;Будет такая обводка если сдал предмет" style="text;html=1;align=center;verticalAlign=middle;resizable=0;points=[];autosize=1;strokeColor=none;fillColor=none;" parent="1" vertex="1">
          <mxGeometry x="3645" y="-1140" width="250" height="30" as="geometry" />
        </mxCell>
        <mxCell id="NqlOlbyzlIxUdFmk_5lp-16" value="" style="group;strokeColor=none;" parent="1" vertex="1" connectable="0">
          <mxGeometry x="3150" y="-1490" width="380" height="210" as="geometry" />
        </mxCell>
        <mxCell id="NqlOlbyzlIxUdFmk_5lp-17" value="" style="rounded=1;whiteSpace=wrap;html=1;strokeColor=#FF0000;strokeWidth=4;" parent="NqlOlbyzlIxUdFmk_5lp-16" vertex="1">
          <mxGeometry width="380" height="210" as="geometry" />
        </mxCell>
        <mxCell id="NqlOlbyzlIxUdFmk_5lp-18" value="&lt;font style=&quot;font-size: 14px;&quot;&gt;Nazwa przedmiotu&lt;/font&gt;" style="text;html=1;align=center;verticalAlign=middle;whiteSpace=wrap;rounded=1;strokeColor=#FF0000;strokeWidth=4;" parent="NqlOlbyzlIxUdFmk_5lp-16" vertex="1">
          <mxGeometry x="110" width="160" height="40" as="geometry" />
        </mxCell>
        <mxCell id="NqlOlbyzlIxUdFmk_5lp-19" value="ending:" style="text;html=1;align=center;verticalAlign=middle;whiteSpace=wrap;rounded=0;" parent="NqlOlbyzlIxUdFmk_5lp-16" vertex="1">
          <mxGeometry x="9" y="176.5" width="51" height="17" as="geometry" />
        </mxCell>
        <mxCell id="NqlOlbyzlIxUdFmk_5lp-20" value="15%" style="text;html=1;align=center;verticalAlign=middle;whiteSpace=wrap;rounded=0;" parent="NqlOlbyzlIxUdFmk_5lp-16" vertex="1">
          <mxGeometry x="60" y="176.5" width="40" height="17" as="geometry" />
        </mxCell>
        <mxCell id="NqlOlbyzlIxUdFmk_5lp-21" value="" style="verticalLabelPosition=bottom;verticalAlign=top;html=1;shape=mxgraph.basic.star;fillColor=#0F0F0F;" parent="NqlOlbyzlIxUdFmk_5lp-16" vertex="1">
          <mxGeometry x="30" y="6" width="30" height="28" as="geometry" />
        </mxCell>
        <mxCell id="NqlOlbyzlIxUdFmk_5lp-22" value="" style="group" parent="NqlOlbyzlIxUdFmk_5lp-16" vertex="1" connectable="0">
          <mxGeometry x="360" y="168" width="2" height="15" as="geometry" />
        </mxCell>
        <mxCell id="NqlOlbyzlIxUdFmk_5lp-23" value="" style="whiteSpace=wrap;html=1;aspect=fixed;" parent="NqlOlbyzlIxUdFmk_5lp-22" vertex="1">
          <mxGeometry width="2" height="2" as="geometry" />
        </mxCell>
        <mxCell id="NqlOlbyzlIxUdFmk_5lp-24" value="" style="whiteSpace=wrap;html=1;aspect=fixed;" parent="NqlOlbyzlIxUdFmk_5lp-22" vertex="1">
          <mxGeometry y="6.5" width="2" height="2" as="geometry" />
        </mxCell>
        <mxCell id="NqlOlbyzlIxUdFmk_5lp-25" value="" style="whiteSpace=wrap;html=1;aspect=fixed;" parent="NqlOlbyzlIxUdFmk_5lp-22" vertex="1">
          <mxGeometry y="13" width="2" height="2" as="geometry" />
        </mxCell>
        <mxCell id="NqlOlbyzlIxUdFmk_5lp-26" value="В центре картинка предмета" style="text;html=1;align=center;verticalAlign=middle;whiteSpace=wrap;rounded=0;" parent="NqlOlbyzlIxUdFmk_5lp-16" vertex="1">
          <mxGeometry x="125" y="90" width="130" height="30" as="geometry" />
        </mxCell>
        <mxCell id="NqlOlbyzlIxUdFmk_5lp-27" value="" style="edgeStyle=orthogonalEdgeStyle;rounded=0;orthogonalLoop=1;jettySize=auto;html=1;" parent="1" source="NqlOlbyzlIxUdFmk_5lp-28" target="NqlOlbyzlIxUdFmk_5lp-17" edge="1">
          <mxGeometry relative="1" as="geometry" />
        </mxCell>
        <mxCell id="NqlOlbyzlIxUdFmk_5lp-28" value="-Будет такая обводка если не сдал предмет" style="text;html=1;align=center;verticalAlign=middle;resizable=0;points=[];autosize=1;strokeColor=none;fillColor=none;" parent="1" vertex="1">
          <mxGeometry x="3635" y="-1400" width="270" height="30" as="geometry" />
        </mxCell>
        <mxCell id="6XEsTle5TY5kuZ91t3ZL-18" value="" style="rounded=0;whiteSpace=wrap;html=1;fillColor=default;fillStyle=auto;" parent="1" vertex="1">
          <mxGeometry x="3760" y="-985" width="1580" height="940" as="geometry" />
        </mxCell>
        <mxCell id="6XEsTle5TY5kuZ91t3ZL-19" value="" style="group" parent="1" vertex="1" connectable="0">
          <mxGeometry x="3780" y="-967.5" width="210" height="900" as="geometry" />
        </mxCell>
        <mxCell id="6XEsTle5TY5kuZ91t3ZL-20" value="" style="rounded=1;whiteSpace=wrap;html=1;fillColor=#BFBFBF;fontColor=#333333;strokeColor=#666666;movable=1;resizable=1;rotatable=1;deletable=1;editable=1;locked=0;connectable=1;" parent="6XEsTle5TY5kuZ91t3ZL-19" vertex="1">
          <mxGeometry width="210" height="900" as="geometry" />
        </mxCell>
        <mxCell id="6XEsTle5TY5kuZ91t3ZL-21" value="&lt;font style=&quot;font-size: 32px;&quot;&gt;Learny&lt;/font&gt;" style="rounded=1;whiteSpace=wrap;html=1;fillColor=#0A0A0A;fontColor=#FCFCFC;fontSize=16;movable=1;resizable=1;rotatable=1;deletable=1;editable=1;locked=0;connectable=1;" parent="6XEsTle5TY5kuZ91t3ZL-19" vertex="1">
          <mxGeometry x="10" y="50" width="190" height="60" as="geometry" />
        </mxCell>
        <mxCell id="6XEsTle5TY5kuZ91t3ZL-22" value="Main Page" style="rounded=1;whiteSpace=wrap;html=1;fontSize=16;" parent="6XEsTle5TY5kuZ91t3ZL-19" vertex="1">
          <mxGeometry x="10" y="200" width="190" height="40" as="geometry" />
        </mxCell>
        <mxCell id="6XEsTle5TY5kuZ91t3ZL-23" value="Schedule" style="rounded=1;whiteSpace=wrap;html=1;fontSize=16;" parent="6XEsTle5TY5kuZ91t3ZL-19" vertex="1">
          <mxGeometry x="10" y="260" width="190" height="40" as="geometry" />
        </mxCell>
        <mxCell id="6XEsTle5TY5kuZ91t3ZL-24" value="Courses" style="rounded=1;whiteSpace=wrap;html=1;fontSize=16;fillColor=#d5e8d4;strokeColor=#82b366;" parent="6XEsTle5TY5kuZ91t3ZL-19" vertex="1">
          <mxGeometry x="10" y="320" width="190" height="40" as="geometry" />
        </mxCell>
        <mxCell id="6XEsTle5TY5kuZ91t3ZL-25" value="Sprawdziany" style="rounded=1;whiteSpace=wrap;html=1;fontSize=16;" parent="6XEsTle5TY5kuZ91t3ZL-19" vertex="1">
          <mxGeometry x="10" y="380" width="190" height="40" as="geometry" />
        </mxCell>
        <mxCell id="6XEsTle5TY5kuZ91t3ZL-26" value="Oceny końcowe" style="rounded=1;whiteSpace=wrap;html=1;fontSize=16;" parent="6XEsTle5TY5kuZ91t3ZL-19" vertex="1">
          <mxGeometry x="10" y="440" width="190" height="40" as="geometry" />
        </mxCell>
        <mxCell id="6XEsTle5TY5kuZ91t3ZL-27" value="Decyzje" style="rounded=1;whiteSpace=wrap;html=1;fontSize=16;" parent="6XEsTle5TY5kuZ91t3ZL-19" vertex="1">
          <mxGeometry x="10" y="560" width="190" height="40" as="geometry" />
        </mxCell>
        <mxCell id="6XEsTle5TY5kuZ91t3ZL-28" value="Profil" style="rounded=1;whiteSpace=wrap;html=1;fontSize=16;" parent="6XEsTle5TY5kuZ91t3ZL-19" vertex="1">
          <mxGeometry x="10" y="130" width="190" height="40" as="geometry" />
        </mxCell>
        <mxCell id="6XEsTle5TY5kuZ91t3ZL-29" value="" style="line;strokeWidth=2;html=1;" parent="6XEsTle5TY5kuZ91t3ZL-19" vertex="1">
          <mxGeometry x="10" y="180" width="190" height="10" as="geometry" />
        </mxCell>
        <mxCell id="6XEsTle5TY5kuZ91t3ZL-30" value="" style="line;strokeWidth=2;html=1;" parent="6XEsTle5TY5kuZ91t3ZL-19" vertex="1">
          <mxGeometry x="10" y="610" width="190" height="10" as="geometry" />
        </mxCell>
        <mxCell id="6XEsTle5TY5kuZ91t3ZL-31" value="Aplikacja mobilna" style="rounded=1;whiteSpace=wrap;html=1;fontSize=16;" parent="6XEsTle5TY5kuZ91t3ZL-19" vertex="1">
          <mxGeometry x="10" y="630" width="190" height="40" as="geometry" />
        </mxCell>
        <mxCell id="6XEsTle5TY5kuZ91t3ZL-32" value="Preferencje" style="rounded=1;whiteSpace=wrap;html=1;fontSize=16;" parent="6XEsTle5TY5kuZ91t3ZL-19" vertex="1">
          <mxGeometry x="10" y="812.5" width="190" height="40" as="geometry" />
        </mxCell>
        <mxCell id="6XEsTle5TY5kuZ91t3ZL-33" value="Język" style="rounded=1;whiteSpace=wrap;html=1;fontSize=16;" parent="6XEsTle5TY5kuZ91t3ZL-19" vertex="1">
          <mxGeometry x="10" y="690" width="190" height="40" as="geometry" />
        </mxCell>
        <mxCell id="6XEsTle5TY5kuZ91t3ZL-34" value="Platności" style="rounded=1;whiteSpace=wrap;html=1;fontSize=16;" parent="6XEsTle5TY5kuZ91t3ZL-19" vertex="1">
          <mxGeometry x="10" y="752.5" width="190" height="40" as="geometry" />
        </mxCell>
        <mxCell id="6XEsTle5TY5kuZ91t3ZL-35" value="" style="rounded=1;whiteSpace=wrap;html=1;gradientColor=none;glass=0;" parent="1" vertex="1">
          <mxGeometry x="4040" y="-920" width="270" height="810" as="geometry" />
        </mxCell>
        <mxCell id="6XEsTle5TY5kuZ91t3ZL-38" value="" style="group" parent="1" vertex="1" connectable="0">
          <mxGeometry x="4060" y="-860" width="230" height="72" as="geometry" />
        </mxCell>
        <mxCell id="6XEsTle5TY5kuZ91t3ZL-36" value="" style="rounded=1;whiteSpace=wrap;html=1;" parent="6XEsTle5TY5kuZ91t3ZL-38" vertex="1">
          <mxGeometry width="230" height="72" as="geometry" />
        </mxCell>
        <mxCell id="6XEsTle5TY5kuZ91t3ZL-37" value="Nazwa przedmiotu" style="text;html=1;align=center;verticalAlign=middle;whiteSpace=wrap;rounded=0;fontSize=23;" parent="6XEsTle5TY5kuZ91t3ZL-38" vertex="1">
          <mxGeometry x="57.5" y="15.5" width="112.5" height="41" as="geometry" />
        </mxCell>
        <mxCell id="6XEsTle5TY5kuZ91t3ZL-42" value="" style="rounded=0;whiteSpace=wrap;html=1;gradientColor=none;glass=0;" parent="1" vertex="1">
          <mxGeometry x="4350" y="-940" width="950" height="850" as="geometry" />
        </mxCell>
        <mxCell id="6XEsTle5TY5kuZ91t3ZL-47" value="" style="rounded=1;whiteSpace=wrap;html=1;" parent="1" vertex="1">
          <mxGeometry x="4370" y="-844" width="910" height="60" as="geometry" />
        </mxCell>
        <mxCell id="6XEsTle5TY5kuZ91t3ZL-49" value="Nazwa tematu" style="text;html=1;align=center;verticalAlign=middle;whiteSpace=wrap;rounded=0;fontSize=18;" parent="1" vertex="1">
          <mxGeometry x="4757.5" y="-829" width="135" height="30" as="geometry" />
        </mxCell>
        <mxCell id="fCo06Val6qiNm1KgXH0K-1" value="" style="group" vertex="1" connectable="0" parent="1">
          <mxGeometry x="4370" y="-920" width="120" height="60" as="geometry" />
        </mxCell>
        <mxCell id="6XEsTle5TY5kuZ91t3ZL-44" value="" style="rounded=1;whiteSpace=wrap;html=1;" parent="fCo06Val6qiNm1KgXH0K-1" vertex="1">
          <mxGeometry width="120" height="60" as="geometry" />
        </mxCell>
        <mxCell id="6XEsTle5TY5kuZ91t3ZL-43" value="Main" style="text;html=1;align=center;verticalAlign=middle;whiteSpace=wrap;rounded=0;fontSize=20;" parent="fCo06Val6qiNm1KgXH0K-1" vertex="1">
          <mxGeometry x="5" y="6.5" width="77.5" height="47" as="geometry" />
        </mxCell>
        <mxCell id="6XEsTle5TY5kuZ91t3ZL-45" value="" style="triangle;whiteSpace=wrap;html=1;rotation=90;fillColor=#000000;" parent="fCo06Val6qiNm1KgXH0K-1" vertex="1">
          <mxGeometry x="95" y="18" width="10" height="24" as="geometry" />
        </mxCell>
        <mxCell id="fCo06Val6qiNm1KgXH0K-2" value="" style="group" vertex="1" connectable="0" parent="1">
          <mxGeometry x="4370" y="-700" width="120" height="60" as="geometry" />
        </mxCell>
        <mxCell id="fCo06Val6qiNm1KgXH0K-3" value="" style="rounded=1;whiteSpace=wrap;html=1;" vertex="1" parent="fCo06Val6qiNm1KgXH0K-2">
          <mxGeometry width="120" height="60" as="geometry" />
        </mxCell>
        <mxCell id="fCo06Val6qiNm1KgXH0K-4" value="Wykł" style="text;html=1;align=center;verticalAlign=middle;whiteSpace=wrap;rounded=0;fontSize=20;" vertex="1" parent="fCo06Val6qiNm1KgXH0K-2">
          <mxGeometry x="5" y="6.5" width="77.5" height="47" as="geometry" />
        </mxCell>
        <mxCell id="fCo06Val6qiNm1KgXH0K-5" value="" style="triangle;whiteSpace=wrap;html=1;rotation=90;fillColor=#000000;" vertex="1" parent="fCo06Val6qiNm1KgXH0K-2">
          <mxGeometry x="95" y="18" width="10" height="24" as="geometry" />
        </mxCell>
        <mxCell id="fCo06Val6qiNm1KgXH0K-6" value="" style="group" vertex="1" connectable="0" parent="1">
          <mxGeometry x="4370" y="-500" width="120" height="60" as="geometry" />
        </mxCell>
        <mxCell id="fCo06Val6qiNm1KgXH0K-7" value="" style="rounded=1;whiteSpace=wrap;html=1;" vertex="1" parent="fCo06Val6qiNm1KgXH0K-6">
          <mxGeometry width="120" height="60" as="geometry" />
        </mxCell>
        <mxCell id="fCo06Val6qiNm1KgXH0K-8" value="Ćw" style="text;html=1;align=center;verticalAlign=middle;whiteSpace=wrap;rounded=0;fontSize=20;" vertex="1" parent="fCo06Val6qiNm1KgXH0K-6">
          <mxGeometry x="5" y="6.5" width="77.5" height="47" as="geometry" />
        </mxCell>
        <mxCell id="fCo06Val6qiNm1KgXH0K-9" value="" style="triangle;whiteSpace=wrap;html=1;rotation=90;fillColor=#000000;" vertex="1" parent="fCo06Val6qiNm1KgXH0K-6">
          <mxGeometry x="95" y="18" width="10" height="24" as="geometry" />
        </mxCell>
        <mxCell id="fCo06Val6qiNm1KgXH0K-10" value="" style="group" vertex="1" connectable="0" parent="1">
          <mxGeometry x="4370" y="-290" width="120" height="60" as="geometry" />
        </mxCell>
        <mxCell id="fCo06Val6qiNm1KgXH0K-11" value="" style="rounded=1;whiteSpace=wrap;html=1;" vertex="1" parent="fCo06Val6qiNm1KgXH0K-10">
          <mxGeometry width="120" height="60" as="geometry" />
        </mxCell>
        <mxCell id="fCo06Val6qiNm1KgXH0K-12" value="Lab" style="text;html=1;align=center;verticalAlign=middle;whiteSpace=wrap;rounded=0;fontSize=20;" vertex="1" parent="fCo06Val6qiNm1KgXH0K-10">
          <mxGeometry x="5" y="6.5" width="77.5" height="47" as="geometry" />
        </mxCell>
        <mxCell id="fCo06Val6qiNm1KgXH0K-13" value="" style="triangle;whiteSpace=wrap;html=1;rotation=90;fillColor=#000000;" vertex="1" parent="fCo06Val6qiNm1KgXH0K-10">
          <mxGeometry x="95" y="18" width="10" height="24" as="geometry" />
        </mxCell>
      </root>
    </mxGraphModel>
  </diagram>
</mxfile>
